<svg width="73" height="49" viewBox="0 0 73 49" fill="none" xmlns="http://www.w3.org/2000/svg">
<path d="M22.1479 4.78764C22.1479 4.78764 22.4243 1.77243 27.605 2.60427C27.605 2.60427 30.1606 0.245846 33.7871 0.802278C37.4135 1.3587 60.0209 9.02759 60.0209 9.02759L63.2131 5.76817L66.2375 6.83589L61.3103 14.0299L64.5585 7.37392L63.6608 7.0609L60.1326 10.6585L36.614 2.79175C36.614 2.79175 30.8458 0.824663 28.1575 3.91581C28.1559 3.91381 23.495 2.52913 22.1479 4.78764Z" fill="#111111"/>
<path d="M23.4947 5.3409L33.7425 6.26947C33.7425 6.26947 32.771 3.71119 35.4781 4.15089C38.1851 4.5906 48.7852 8.87176 48.7852 8.87176L38.9327 6.48493L40.2962 7.68014L60.0002 12.9326L41.394 9.44535L48.5566 17.512H44.5962L36.4272 8.60711L23.4947 5.3409Z" fill="#F23F40"/>
<path d="M44.8602 1.91992L43.067 2.33924L45.882 3.83984L38.097 1.27995L45.1781 0L47.5972 1.27995L44.8602 1.91992Z" fill="#111111"/>
<path d="M16.9386 29.4992C16.6763 30.1527 16.2757 30.7411 15.7643 31.2237C15.2552 31.7033 14.6411 32.0764 13.922 32.3429C13.2029 32.6094 12.4042 32.7434 11.5261 32.745C10.6348 32.745 9.8329 32.611 9.12011 32.3429C8.40737 32.0748 7.80287 31.7017 7.30652 31.2237C6.80586 30.7379 6.41515 30.1498 6.16095 29.4992C5.89351 28.8284 5.75993 28.0844 5.76022 27.2671V18.8175H9.00582V26.9989C9.00394 27.3551 9.05209 27.7098 9.14883 28.0525C9.23875 28.3742 9.38731 28.6763 9.58697 28.9436C9.79292 29.2124 10.0618 29.4262 10.3697 29.566C10.6942 29.7195 11.0856 29.7962 11.544 29.7962C12.0023 29.7962 12.3937 29.7195 12.7182 29.566C13.0279 29.4245 13.2996 29.2112 13.5109 28.9436C13.7151 28.6792 13.8642 28.3761 13.9491 28.0525C14.0396 27.7088 14.0846 27.3545 14.0829 26.9989V18.8175H17.3492V27.2671C17.3492 28.0855 17.2123 28.8295 16.9386 29.4992Z" fill="#F23F40"/>
<path d="M32.6041 25.5618C32.6041 26.7498 32.3845 27.7749 31.9452 28.637C31.506 29.4991 30.9269 30.2079 30.2077 30.7636C29.4809 31.3231 28.6549 31.7393 27.7736 31.99C26.8804 32.2502 25.9551 32.3825 25.0251 32.3829H19.9838V18.8175H24.8713C25.8231 18.8173 26.7716 18.9298 27.6971 19.1529C28.6265 19.3762 29.4539 19.7466 30.1791 20.2642C30.9043 20.7817 31.4898 21.4746 31.9357 22.3428C32.381 23.2118 32.6038 24.2848 32.6041 25.5618ZM29.2056 25.5618C29.2056 24.7954 29.0814 24.16 28.8331 23.6555C28.5848 23.151 28.254 22.7486 27.8405 22.4483C27.416 22.1435 26.9359 21.9254 26.4276 21.8063C25.8927 21.678 25.3444 21.6137 24.7944 21.6149H23.172V29.5472H24.7188C25.288 29.5494 25.8553 29.4823 26.4085 29.3473C26.9255 29.2247 27.413 28.9999 27.8424 28.6862C28.2559 28.3794 28.5868 27.9706 28.8351 27.4597C29.0834 26.9489 29.2072 26.3162 29.2056 25.5618Z" fill="#111111"/>
<path d="M34.761 32.3829V18.8175H43.8493V21.5757H37.9113V24.1432H43.5246V26.7678H37.9113V29.5847H44.1926V32.3829H34.761Z" fill="#111111"/>
<path d="M54.5024 32.3829L51.5433 27.5929L48.6987 32.3829H44.8037L49.5389 25.2169L45.1858 18.8175H49.1183L51.6385 23.0327L54.1205 18.8175H57.9204L53.6434 25.2169L58.5315 32.3829H54.5024Z" fill="#111111"/>
<path d="M20.0922 36.7291C19.9224 36.5072 19.7004 36.3311 19.4461 36.2167C19.1934 36.0993 18.9183 36.0383 18.6399 36.038C18.3226 36.0331 18.0082 36.0985 17.7189 36.2294C17.451 36.3531 17.2117 36.5315 17.0163 36.7531C16.817 36.9815 16.663 37.2459 16.5626 37.5322C16.4533 37.84 16.3987 38.1647 16.4013 38.4915C16.3995 38.799 16.4512 39.1045 16.5538 39.3942C16.6512 39.6703 16.8011 39.9249 16.9952 40.1437C17.1911 40.3622 17.4312 40.5363 17.6994 40.6545C17.9966 40.7834 18.3177 40.8474 18.6414 40.842C18.9867 40.842 19.2893 40.771 19.5493 40.629C19.8127 40.484 20.0392 40.2801 20.2113 40.033L20.8984 40.5526C20.8248 40.6472 20.745 40.7369 20.6594 40.8208C20.5239 40.9548 20.3729 41.0721 20.2097 41.1702C19.9974 41.2983 19.7709 41.4012 19.5349 41.4768C19.2399 41.5695 18.9319 41.614 18.6227 41.6087C18.1793 41.6154 17.7401 41.5223 17.3373 41.3361C16.7997 41.0814 16.345 40.679 16.0259 40.1757C15.7068 39.6723 15.5362 39.0886 15.5341 38.492C15.5297 38.0513 15.6074 37.6137 15.7631 37.2016C15.9068 36.8216 16.1247 36.4742 16.404 36.1799C16.6831 35.89 17.0198 35.6622 17.3923 35.5115C17.7973 35.348 18.2305 35.2665 18.667 35.2717C19.067 35.2725 19.4631 35.3507 19.8337 35.502C20.2047 35.6473 20.5289 35.892 20.7709 36.2094L20.0922 36.7291Z" fill="#111111"/>
<path d="M22.3407 39.4353C22.3384 39.1516 22.3946 38.8704 22.506 38.6095C22.6718 38.2224 22.947 37.8925 23.2977 37.6607C23.6483 37.4289 24.059 37.3054 24.4789 37.3054C24.8988 37.3054 25.3095 37.4289 25.6601 37.6607C26.0108 37.8925 26.2861 38.2224 26.4518 38.6095C26.5628 38.8705 26.6187 39.1516 26.616 39.4353C26.6177 39.7147 26.5638 39.9916 26.4574 40.2498C26.351 40.508 26.1944 40.7422 25.9966 40.9388C25.8014 41.1308 25.5716 41.2838 25.3194 41.3897C24.7811 41.6114 24.1775 41.6114 23.6393 41.3897C23.387 41.2838 23.1573 41.1308 22.9621 40.9388C22.7643 40.7422 22.6076 40.508 22.5012 40.2498C22.3949 39.9916 22.341 39.7147 22.3427 39.4353H22.3407ZM23.1553 39.4353C23.1533 39.6281 23.1849 39.8198 23.2485 40.0018C23.305 40.166 23.3947 40.3167 23.5118 40.4447C23.6285 40.5693 23.77 40.668 23.9272 40.7341C24.2814 40.8764 24.6765 40.8764 25.0306 40.7341C25.1879 40.6679 25.3295 40.5693 25.4465 40.4447C25.5632 40.3165 25.6526 40.1658 25.7094 40.0018C25.8338 39.6346 25.8338 39.2365 25.7094 38.8693C25.6525 38.7054 25.563 38.5547 25.4465 38.4264C25.3294 38.302 25.1878 38.2034 25.0306 38.137C24.6764 37.9953 24.2815 37.9953 23.9272 38.137C23.7701 38.2033 23.6286 38.3019 23.5118 38.4264C23.3948 38.5545 23.3052 38.7052 23.2485 38.8693C23.1849 39.0511 23.1533 39.2427 23.1553 39.4353Z" fill="#111111"/>
<path d="M31.9887 41.4537H31.2251V40.8321H31.2079C31.1118 41.0479 30.9449 41.2225 30.7072 41.3557C30.4548 41.4928 30.1713 41.5617 29.8843 41.5556C29.694 41.5568 29.5048 41.5265 29.3243 41.466C29.152 41.4085 28.9942 41.3141 28.8618 41.1894C28.722 41.0548 28.6132 40.891 28.5431 40.7097C28.4591 40.4883 28.4185 40.2527 28.4236 40.0158V37.4176H29.1872V39.802C29.1835 39.9652 29.2094 40.1277 29.2637 40.2816C29.307 40.4033 29.3765 40.5138 29.4673 40.6054C29.55 40.6865 29.6502 40.7476 29.76 40.7841C29.8708 40.8213 29.987 40.84 30.1038 40.8397C30.2543 40.841 30.4038 40.815 30.5451 40.7629C30.6813 40.7115 30.8034 40.6283 30.9013 40.5203C31.01 40.3985 31.0915 40.2547 31.1402 40.0985C31.2003 39.9029 31.2289 39.6989 31.2251 39.4941V37.4155H31.9887V41.4537Z" fill="#111111"/>
<path d="M33.9911 37.4175H34.7551V38.0391H34.7718C34.8231 37.9305 34.892 37.8312 34.9757 37.7453C35.06 37.6578 35.1556 37.5818 35.2597 37.5194C35.3677 37.4556 35.4832 37.4057 35.6035 37.3707C35.7246 37.3341 35.8503 37.3154 35.9767 37.3152C36.0919 37.3138 36.2065 37.3311 36.3161 37.3663L36.2823 38.1922C36.2201 38.1754 36.158 38.161 36.0954 38.1498C36.034 38.1383 35.9716 38.1326 35.909 38.1326C35.5354 38.1326 35.2496 38.2376 35.0518 38.4476C34.854 38.6576 34.7551 38.9841 34.7551 39.427V41.4536H33.9911V37.4175Z" fill="#111111"/>
<path d="M37.8604 35.9697C37.8592 35.8383 37.9036 35.7105 37.9859 35.6083C38.0682 35.506 38.1833 35.4356 38.3115 35.409C38.4398 35.3825 38.5733 35.4015 38.6892 35.4628C38.805 35.5241 38.8961 35.6239 38.9468 35.7451C38.9975 35.8663 39.0047 36.0013 38.9671 36.1273C38.9296 36.2532 38.8496 36.3621 38.7409 36.4354C38.6321 36.5087 38.5014 36.5419 38.3711 36.5292C38.2407 36.5165 38.1188 36.4588 38.0261 36.3659C37.973 36.3147 37.9309 36.2532 37.9023 36.185C37.8739 36.1169 37.8596 36.0436 37.8604 35.9697ZM38.0389 37.4176H38.8025V41.4549H38.0389V37.4176Z" fill="#111111"/>
<path d="M41.4414 39.7163C41.4396 39.8832 41.479 40.048 41.5561 40.196C41.6305 40.3386 41.733 40.4647 41.8573 40.5665C41.9861 40.6717 42.1326 40.7529 42.2899 40.8064C42.4536 40.863 42.6257 40.8918 42.7989 40.8915C43.0171 40.8969 43.2322 40.8393 43.4187 40.7256C43.6028 40.6065 43.7661 40.458 43.9023 40.2859L44.4791 40.7288C44.0542 41.2791 43.4603 41.5544 42.6974 41.5547C42.4026 41.5595 42.1097 41.5051 41.8362 41.3948C41.589 41.2943 41.3661 41.1419 41.1825 40.9479C41.0018 40.7535 40.8619 40.5247 40.771 40.2751C40.6729 40.0063 40.6241 39.7219 40.6268 39.4357C40.6241 39.1483 40.6774 38.8631 40.7838 38.5962C40.8833 38.346 41.0303 38.1176 41.2164 37.9235C41.4033 37.7315 41.627 37.5795 41.874 37.4766C42.1377 37.3676 42.4206 37.3132 42.7057 37.3167C43.0621 37.3167 43.3634 37.3792 43.6095 37.5042C43.8452 37.6206 44.0523 37.7878 44.2162 37.9938C44.3744 38.1953 44.4913 38.4263 44.5599 38.6734C44.6303 38.9242 44.6659 39.1835 44.6659 39.4441V39.7163H41.4414ZM43.8513 39.1035C43.8478 38.9443 43.8209 38.7864 43.7716 38.635C43.7261 38.4976 43.6523 38.3713 43.5549 38.2644C43.455 38.1567 43.3326 38.0725 43.1965 38.0178C43.0355 37.9552 42.864 37.9247 42.6914 37.9283C42.5147 37.9263 42.3397 37.9625 42.1783 38.0346C42.0302 38.1005 41.8961 38.1945 41.7836 38.3116C41.6784 38.4218 41.5937 38.55 41.5334 38.6902C41.4759 38.8204 41.4456 38.9611 41.4442 39.1035H43.8513Z" fill="#111111"/>
<path d="M46.4309 37.4175H47.1945V38.0391H47.2116C47.2629 37.9306 47.3317 37.8314 47.4152 37.7453C47.4996 37.6577 47.5952 37.5818 47.6996 37.5194C47.8075 37.4556 47.923 37.4056 48.0431 37.3707C48.1645 37.3341 48.2902 37.3154 48.4164 37.3152C48.5319 37.3138 48.6465 37.3311 48.7557 37.3663L48.7219 38.1922C48.6595 38.1754 48.5972 38.161 48.5353 38.1498C48.4734 38.1383 48.411 38.1326 48.3487 38.1326C47.9755 38.1326 47.6898 38.2376 47.4916 38.4476C47.2935 38.6576 47.1945 38.9841 47.1945 39.427V41.4536H46.4309V37.4175Z" fill="#111111"/>
<path d="M45.8254 14.4348C45.8254 14.4348 66.6084 18.6028 66.7123 29.5471C66.8162 40.4915 47.6721 44.7566 44.8041 45.2767C41.9362 45.7967 27.4441 47.2266 17.3497 44.5483C3.37306 40.8408 0 35.2713 0 35.2713C0 35.2713 6.86439 46.8756 32.6045 48.3742C57.9339 49.8491 72.3145 39.4637 72.3526 29.5467C72.3923 19.1464 55.4079 12.1235 43.8517 12.2107L45.8254 14.4348Z" fill="#F23F40"/>
</svg>
